<?xml version="1.0" standalone="no"?>
<!DOCTYPE svg PUBLIC "-//W3C//DTD SVG 20010904//EN"
 "http://www.w3.org/TR/2001/REC-SVG-20010904/DTD/svg10.dtd">
<svg version="1.0" xmlns="http://www.w3.org/2000/svg"
 width="600pt" height="244pt" viewBox="0 0 300 122"
 preserveAspectRatio="xMidYMid meet">
<metadata>
Created by potrace 1.10, written by Peter Selinger 2001-2011
</metadata>
<g transform="translate(0.000000,122.000000) scale(0.100000,-0.100000)"
fill="#000000" stroke="none">
<path d="M989 1074 c-74 -70 -197 -233 -271 -358 l-53 -89 -6 94 c-4 52 -10
157 -14 235 l-8 141 -51 -4 c-175 -14 -250 -45 -309 -129 -50 -71 -32 -200 26
-192 30 4 33 32 8 64 -68 86 35 202 189 216 l35 3 -3 -45 c-10 -137 -68 -336
-123 -420 -48 -75 -80 -92 -154 -84 -47 6 -56 4 -61 -11 -18 -47 47 -69 122
-40 111 42 207 228 236 461 7 52 15 89 19 82 3 -7 9 -74 13 -148 14 -308 19
-390 25 -390 3 0 30 46 60 101 62 115 231 371 273 412 28 28 37 21 22 -18 -5
-13 -9 -14 -15 -4 -12 21 -32 -34 -84 -237 -26 -98 -53 -194 -61 -213 -8 -18
-14 -34 -14 -35 0 -1 158 1 208 3 12 1 22 7 22 14 0 10 -17 14 -60 14 -33 0
-62 2 -65 5 -8 7 109 470 139 554 14 38 23 70 21 72 -2 3 -32 -22 -66 -54z
m-391 -65 l-3 -24 -13 23 c-7 12 -10 27 -6 33 10 17 26 -6 22 -32z"/>
<path d="M2030 1073 c-98 -52 -145 -138 -205 -381 -39 -155 -63 -192 -125
-192 -11 0 -20 -7 -20 -15 0 -13 14 -15 83 -13 45 2 154 -1 242 -5 151 -8 162
-7 192 12 59 37 68 141 12 141 -26 0 -34 -22 -20 -60 9 -26 7 -34 -9 -50 -24
-24 -19 -24 -100 -4 -70 16 -167 21 -219 9 l-31 -7 19 34 c11 18 40 108 65
200 80 293 136 364 230 289 21 -17 43 -28 51 -25 48 19 2 83 -65 91 -36 4 -56
-1 -100 -24z"/>
<path d="M1369 1076 c-186 -50 -316 -335 -230 -503 24 -48 64 -81 134 -112 32
-13 84 -55 152 -121 120 -117 165 -141 260 -142 98 0 189 51 171 98 -6 15 -46
20 -46 5 0 -5 -13 -23 -29 -40 -23 -25 -37 -31 -68 -31 -55 1 -96 26 -209 131
-91 85 -99 95 -80 103 12 4 38 15 58 24 54 22 134 110 171 189 28 61 32 78 32
158 0 74 -4 97 -22 132 -54 101 -168 143 -294 109z m130 -47 c79 -44 113 -144
93 -274 -15 -99 -45 -167 -93 -209 -100 -91 -228 -62 -276 62 -23 60 -23 186
0 262 43 144 171 218 276 159z m146 -139 c4 -24 8 -48 11 -51 2 -4 -2 -24 -10
-45 l-13 -39 -2 65 c-1 36 -6 83 -11 104 -7 33 -6 37 5 25 8 -8 17 -34 20 -59z
m-477 -194 c1 -24 9 -63 17 -86 19 -53 19 -55 0 -40 -21 17 -42 94 -37 135 6
49 18 43 20 -9z"/>
<path d="M2398 682 c-117 -116 -147 -167 -148 -242 0 -60 38 -138 86 -179 33
-27 46 -31 83 -29 34 2 48 9 64 30 27 36 34 122 14 170 -14 34 -14 36 4 41 10
3 22 13 26 24 4 10 12 23 19 28 7 6 14 19 16 30 2 14 15 0 45 -52 79 -132 144
-157 188 -73 32 61 12 175 -34 200 -41 22 -52 13 -49 -36 4 -55 30 -81 52 -51
18 24 26 21 26 -8 0 -33 -25 -82 -48 -94 -40 -22 -103 43 -184 191 -40 73 -58
93 -58 67 0 -7 10 -31 22 -56 16 -33 19 -46 10 -55 -9 -9 -14 -5 -22 13 -8 20
-9 17 -4 -18 5 -37 3 -43 -21 -59 -22 -14 -31 -15 -46 -6 -28 18 -39 15 -39
-13 0 -16 6 -25 16 -25 28 0 74 -56 74 -90 0 -63 -48 -120 -102 -120 -36 0
-91 55 -113 115 -16 39 -16 52 -6 88 20 65 41 94 150 202 94 92 113 116 94
115 -5 -1 -56 -49 -115 -108z"/>
<path d="M2587 783 c-4 -3 -7 -17 -7 -30 0 -13 -7 -26 -15 -29 -21 -8 -19 -24
4 -24 14 0 20 10 25 41 7 42 5 54 -7 42z"/>
<path d="M2652 713 c2 -17 10 -29 21 -31 15 -3 18 2 15 25 -2 17 -10 29 -21
31 -15 3 -18 -2 -15 -25z"/>
<path d="M2605 671 c-3 -5 -1 -12 5 -16 5 -3 10 -22 10 -41 0 -21 4 -33 10
-29 11 7 13 54 4 79 -7 18 -20 21 -29 7z"/>
<path d="M2126 414 c-10 -27 -7 -57 9 -74 13 -14 11 -16 -18 -12 -72 8 -85
-78 -14 -92 l30 -6 -21 -23 c-12 -13 -22 -35 -22 -50 0 -36 40 -47 81 -23 l29
17 0 -29 c0 -28 26 -62 47 -62 18 0 43 36 43 63 0 30 11 35 30 11 8 -9 25 -14
44 -12 26 2 32 8 34 31 6 47 -47 93 -93 81 -16 -4 -25 -13 -25 -26 0 -17 -2
-18 -15 -8 -12 10 -19 10 -27 2 -18 -18 -28 -14 -28 8 0 14 -7 20 -22 20 -20
0 -21 1 -3 20 15 16 15 22 5 35 -11 13 -9 15 13 15 20 0 27 6 32 30 9 41 -35
100 -75 100 -16 0 -30 -7 -34 -16z m75 -26 c10 -13 18 -33 19 -45 0 -32 -42
-31 -68 2 -40 51 8 92 49 43z m-30 -100 c16 -30 -8 -50 -49 -42 -41 8 -61 40
-37 58 24 17 73 8 86 -16z m29 -92 c0 -26 -37 -56 -70 -56 -28 0 -27 44 2 64
35 25 68 21 68 -8z m162 7 c27 -24 24 -63 -4 -63 -42 1 -84 51 -61 73 12 12
46 7 65 -10z m-93 -27 c17 -20 10 -77 -11 -89 -24 -16 -48 8 -48 49 0 21 6 37
18 43 23 14 28 13 41 -3z"/>
</g>
</svg>
